<svg xmlns="http://www.w3.org/2000/svg" viewBox="0 0 1144 788" preserveAspectRatio="xMidYMid" width="1144" height="788" style="shape-rendering: auto; display: block; background: rgb(255, 178, 91);" xmlns:xlink="http://www.w3.org/1999/xlink"><g><g transform="translate(-100 342.62289759915217) rotate(0)">
  <animateTransform begin="-28.002847901846717s" repeatCount="indefinite" dur="33.333333333333336s" values="-100 342.62289759915217;1244 1295.7686556215813" keyTimes="0;1" type="translate" attributeName="transform"></animateTransform>
  <animateTransform additive="sum" repeatCount="indefinite" dur="33.333333333333336s" values="0 50 50;244.87749599633958 50 50" begin="-28.002847901846717s" keyTimes="0;1" type="rotate" attributeName="transform"></animateTransform>
  <path transform="scale(0.5423511652373447)" fill="#ffc46c" d="M87.422,66.495c-2.009-0.544-4.049-0.97-6.107-1.283c10.617-11.116,15.747-27.37,13.129-42.549 c-5.236,1.77-10.223,4.252-14.824,7.313c-4.13,2.747-7.948,5.961-11.374,9.55C67.425,24.863,61.344,10.451,50.991,0 c-4.015,5.451-7.281,11.444-9.753,17.744c-3.579,9.122-5.501,18.893-5.669,28.691c-4.79-7.979-11.256-14.955-18.858-20.322 c-4.514-3.187-9.431-5.806-14.616-7.72c-3.361,16.717,2.731,35.015,15.445,46.379c0.369,0.33,0.745,0.654,1.126,0.972 c-2.359,0.411-4.689,0.983-6.969,1.714C7.582,68.775,3.634,70.61,0,72.945c8.85,9.963,23.134,14.771,36.208,12.186 c3.524-0.697,7.002-1.919,9.887-4.057c0.073-0.054,0.145-0.111,0.218-0.167c-0.987,5.662-2.714,11.136-5.104,16.221l7.509,2.806 c1.698-5.797,2.631-11.748,2.814-17.669c0.107,0.076,0.215,0.152,0.324,0.225c3.142,2.114,6.863,3.232,10.607,3.796 C76.352,88.379,91.161,82.628,100,71.71C96.061,69.427,91.816,67.684,87.422,66.495z"></path>
</g><g transform="translate(-100 247.7255243128685) rotate(0)">
  <animateTransform begin="-3.898266293209002s" repeatCount="indefinite" dur="33.333333333333336s" values="-100 247.7255243128685;1244 1106.1446631212007" keyTimes="0;1" type="translate" attributeName="transform"></animateTransform>
  <animateTransform additive="sum" repeatCount="indefinite" dur="33.333333333333336s" values="0 50 50;925.7181027984202 50 50" begin="-3.898266293209002s" keyTimes="0;1" type="rotate" attributeName="transform"></animateTransform>
  <path transform="scale(0.6267063943354403)" fill="#ff956e" d="M87.422,66.495c-2.009-0.544-4.049-0.97-6.107-1.283c10.617-11.116,15.747-27.37,13.129-42.549 c-5.236,1.77-10.223,4.252-14.824,7.313c-4.13,2.747-7.948,5.961-11.374,9.55C67.425,24.863,61.344,10.451,50.991,0 c-4.015,5.451-7.281,11.444-9.753,17.744c-3.579,9.122-5.501,18.893-5.669,28.691c-4.79-7.979-11.256-14.955-18.858-20.322 c-4.514-3.187-9.431-5.806-14.616-7.72c-3.361,16.717,2.731,35.015,15.445,46.379c0.369,0.33,0.745,0.654,1.126,0.972 c-2.359,0.411-4.689,0.983-6.969,1.714C7.582,68.775,3.634,70.61,0,72.945c8.85,9.963,23.134,14.771,36.208,12.186 c3.524-0.697,7.002-1.919,9.887-4.057c0.073-0.054,0.145-0.111,0.218-0.167c-0.987,5.662-2.714,11.136-5.104,16.221l7.509,2.806 c1.698-5.797,2.631-11.748,2.814-17.669c0.107,0.076,0.215,0.152,0.324,0.225c3.142,2.114,6.863,3.232,10.607,3.796 C76.352,88.379,91.161,82.628,100,71.71C96.061,69.427,91.816,67.684,87.422,66.495z"></path>
</g><g transform="translate(-100 333.42408389224244) rotate(0)">
  <animateTransform begin="-2.7884749120259364s" repeatCount="indefinite" dur="33.333333333333336s" values="-100 333.42408389224244;955.9729273970831 888" keyTimes="0;1" type="translate" attributeName="transform"></animateTransform>
  <animateTransform additive="sum" repeatCount="indefinite" dur="33.333333333333336s" values="0 50 50;598.2972897534207 50 50" begin="-2.7884749120259364s" keyTimes="0;1" type="rotate" attributeName="transform"></animateTransform>
  <path transform="scale(0.6184371751455036)" fill="#f86161" d="M87.422,66.495c-2.009-0.544-4.049-0.97-6.107-1.283c10.617-11.116,15.747-27.37,13.129-42.549 c-5.236,1.77-10.223,4.252-14.824,7.313c-4.13,2.747-7.948,5.961-11.374,9.55C67.425,24.863,61.344,10.451,50.991,0 c-4.015,5.451-7.281,11.444-9.753,17.744c-3.579,9.122-5.501,18.893-5.669,28.691c-4.79-7.979-11.256-14.955-18.858-20.322 c-4.514-3.187-9.431-5.806-14.616-7.72c-3.361,16.717,2.731,35.015,15.445,46.379c0.369,0.33,0.745,0.654,1.126,0.972 c-2.359,0.411-4.689,0.983-6.969,1.714C7.582,68.775,3.634,70.61,0,72.945c8.85,9.963,23.134,14.771,36.208,12.186 c3.524-0.697,7.002-1.919,9.887-4.057c0.073-0.054,0.145-0.111,0.218-0.167c-0.987,5.662-2.714,11.136-5.104,16.221l7.509,2.806 c1.698-5.797,2.631-11.748,2.814-17.669c0.107,0.076,0.215,0.152,0.324,0.225c3.142,2.114,6.863,3.232,10.607,3.796 C76.352,88.379,91.161,82.628,100,71.71C96.061,69.427,91.816,67.684,87.422,66.495z"></path>
</g><g transform="translate(-100 8.619008212417754) rotate(0)">
  <animateTransform begin="-23.983692789775333s" repeatCount="indefinite" dur="33.333333333333336s" values="-100 8.619008212417754;528.6214733809747 888" keyTimes="0;1" type="translate" attributeName="transform"></animateTransform>
  <animateTransform additive="sum" repeatCount="indefinite" dur="33.333333333333336s" values="0 50 50;855.1667433070202 50 50" begin="-23.983692789775333s" keyTimes="0;1" type="rotate" attributeName="transform"></animateTransform>
  <path transform="scale(0.8833153983713644)" fill="#f86161" d="M87.422,66.495c-2.009-0.544-4.049-0.97-6.107-1.283c10.617-11.116,15.747-27.37,13.129-42.549 c-5.236,1.77-10.223,4.252-14.824,7.313c-4.13,2.747-7.948,5.961-11.374,9.55C67.425,24.863,61.344,10.451,50.991,0 c-4.015,5.451-7.281,11.444-9.753,17.744c-3.579,9.122-5.501,18.893-5.669,28.691c-4.79-7.979-11.256-14.955-18.858-20.322 c-4.514-3.187-9.431-5.806-14.616-7.72c-3.361,16.717,2.731,35.015,15.445,46.379c0.369,0.33,0.745,0.654,1.126,0.972 c-2.359,0.411-4.689,0.983-6.969,1.714C7.582,68.775,3.634,70.61,0,72.945c8.85,9.963,23.134,14.771,36.208,12.186 c3.524-0.697,7.002-1.919,9.887-4.057c0.073-0.054,0.145-0.111,0.218-0.167c-0.987,5.662-2.714,11.136-5.104,16.221l7.509,2.806 c1.698-5.797,2.631-11.748,2.814-17.669c0.107,0.076,0.215,0.152,0.324,0.225c3.142,2.114,6.863,3.232,10.607,3.796 C76.352,88.379,91.161,82.628,100,71.71C96.061,69.427,91.816,67.684,87.422,66.495z"></path>
</g><g transform="translate(396.103681860978 -100) rotate(0)">
  <animateTransform begin="-10.12615735619026s" repeatCount="indefinite" dur="33.333333333333336s" values="396.103681860978 -100;1244 472.3846944740412" keyTimes="0;1" type="translate" attributeName="transform"></animateTransform>
  <animateTransform additive="sum" repeatCount="indefinite" dur="33.333333333333336s" values="0 50 50;433.9697049378885 50 50" begin="-10.12615735619026s" keyTimes="0;1" type="rotate" attributeName="transform"></animateTransform>
  <path transform="scale(0.9074116174432334)" fill="#ff956e" d="M87.422,66.495c-2.009-0.544-4.049-0.97-6.107-1.283c10.617-11.116,15.747-27.37,13.129-42.549 c-5.236,1.77-10.223,4.252-14.824,7.313c-4.13,2.747-7.948,5.961-11.374,9.55C67.425,24.863,61.344,10.451,50.991,0 c-4.015,5.451-7.281,11.444-9.753,17.744c-3.579,9.122-5.501,18.893-5.669,28.691c-4.79-7.979-11.256-14.955-18.858-20.322 c-4.514-3.187-9.431-5.806-14.616-7.72c-3.361,16.717,2.731,35.015,15.445,46.379c0.369,0.33,0.745,0.654,1.126,0.972 c-2.359,0.411-4.689,0.983-6.969,1.714C7.582,68.775,3.634,70.61,0,72.945c8.85,9.963,23.134,14.771,36.208,12.186 c3.524-0.697,7.002-1.919,9.887-4.057c0.073-0.054,0.145-0.111,0.218-0.167c-0.987,5.662-2.714,11.136-5.104,16.221l7.509,2.806 c1.698-5.797,2.631-11.748,2.814-17.669c0.107,0.076,0.215,0.152,0.324,0.225c3.142,2.114,6.863,3.232,10.607,3.796 C76.352,88.379,91.161,82.628,100,71.71C96.061,69.427,91.816,67.684,87.422,66.495z"></path>
</g><g transform="translate(537.287764309889 -100) rotate(0)">
  <animateTransform begin="-24.836437356503737s" repeatCount="indefinite" dur="33.333333333333336s" values="537.287764309889 -100;1244 864.1734086858474" keyTimes="0;1" type="translate" attributeName="transform"></animateTransform>
  <animateTransform additive="sum" repeatCount="indefinite" dur="33.333333333333336s" values="0 50 50;185.85480564085904 50 50" begin="-24.836437356503737s" keyTimes="0;1" type="rotate" attributeName="transform"></animateTransform>
  <path transform="scale(1.110121671715468)" fill="#f86161" d="M87.422,66.495c-2.009-0.544-4.049-0.97-6.107-1.283c10.617-11.116,15.747-27.37,13.129-42.549 c-5.236,1.77-10.223,4.252-14.824,7.313c-4.13,2.747-7.948,5.961-11.374,9.55C67.425,24.863,61.344,10.451,50.991,0 c-4.015,5.451-7.281,11.444-9.753,17.744c-3.579,9.122-5.501,18.893-5.669,28.691c-4.79-7.979-11.256-14.955-18.858-20.322 c-4.514-3.187-9.431-5.806-14.616-7.72c-3.361,16.717,2.731,35.015,15.445,46.379c0.369,0.33,0.745,0.654,1.126,0.972 c-2.359,0.411-4.689,0.983-6.969,1.714C7.582,68.775,3.634,70.61,0,72.945c8.85,9.963,23.134,14.771,36.208,12.186 c3.524-0.697,7.002-1.919,9.887-4.057c0.073-0.054,0.145-0.111,0.218-0.167c-0.987,5.662-2.714,11.136-5.104,16.221l7.509,2.806 c1.698-5.797,2.631-11.748,2.814-17.669c0.107,0.076,0.215,0.152,0.324,0.225c3.142,2.114,6.863,3.232,10.607,3.796 C76.352,88.379,91.161,82.628,100,71.71C96.061,69.427,91.816,67.684,87.422,66.495z"></path>
</g><g transform="translate(-100 314.3730594687004) rotate(0)">
  <animateTransform begin="-8.188023289524448s" repeatCount="indefinite" dur="33.333333333333336s" values="-100 314.3730594687004;1244 1108.8946783189915" keyTimes="0;1" type="translate" attributeName="transform"></animateTransform>
  <animateTransform additive="sum" repeatCount="indefinite" dur="33.333333333333336s" values="0 50 50;615.64524022894 50 50" begin="-8.188023289524448s" keyTimes="0;1" type="rotate" attributeName="transform"></animateTransform>
  <path transform="scale(1.0475431643495516)" fill="#f86161" d="M87.422,66.495c-2.009-0.544-4.049-0.97-6.107-1.283c10.617-11.116,15.747-27.37,13.129-42.549 c-5.236,1.77-10.223,4.252-14.824,7.313c-4.13,2.747-7.948,5.961-11.374,9.55C67.425,24.863,61.344,10.451,50.991,0 c-4.015,5.451-7.281,11.444-9.753,17.744c-3.579,9.122-5.501,18.893-5.669,28.691c-4.79-7.979-11.256-14.955-18.858-20.322 c-4.514-3.187-9.431-5.806-14.616-7.72c-3.361,16.717,2.731,35.015,15.445,46.379c0.369,0.33,0.745,0.654,1.126,0.972 c-2.359,0.411-4.689,0.983-6.969,1.714C7.582,68.775,3.634,70.61,0,72.945c8.85,9.963,23.134,14.771,36.208,12.186 c3.524-0.697,7.002-1.919,9.887-4.057c0.073-0.054,0.145-0.111,0.218-0.167c-0.987,5.662-2.714,11.136-5.104,16.221l7.509,2.806 c1.698-5.797,2.631-11.748,2.814-17.669c0.107,0.076,0.215,0.152,0.324,0.225c3.142,2.114,6.863,3.232,10.607,3.796 C76.352,88.379,91.161,82.628,100,71.71C96.061,69.427,91.816,67.684,87.422,66.495z"></path>
</g><g transform="translate(-100 330.7410762918162) rotate(0)">
  <animateTransform begin="-14.334183130108906s" repeatCount="indefinite" dur="33.333333333333336s" values="-100 330.7410762918162;633.4835307043917 888" keyTimes="0;1" type="translate" attributeName="transform"></animateTransform>
  <animateTransform additive="sum" repeatCount="indefinite" dur="33.333333333333336s" values="0 50 50;27.206121494103712 50 50" begin="-14.334183130108906s" keyTimes="0;1" type="rotate" attributeName="transform"></animateTransform>
  <path transform="scale(1.076273507566187)" fill="#f86161" d="M87.422,66.495c-2.009-0.544-4.049-0.97-6.107-1.283c10.617-11.116,15.747-27.37,13.129-42.549 c-5.236,1.77-10.223,4.252-14.824,7.313c-4.13,2.747-7.948,5.961-11.374,9.55C67.425,24.863,61.344,10.451,50.991,0 c-4.015,5.451-7.281,11.444-9.753,17.744c-3.579,9.122-5.501,18.893-5.669,28.691c-4.79-7.979-11.256-14.955-18.858-20.322 c-4.514-3.187-9.431-5.806-14.616-7.72c-3.361,16.717,2.731,35.015,15.445,46.379c0.369,0.33,0.745,0.654,1.126,0.972 c-2.359,0.411-4.689,0.983-6.969,1.714C7.582,68.775,3.634,70.61,0,72.945c8.85,9.963,23.134,14.771,36.208,12.186 c3.524-0.697,7.002-1.919,9.887-4.057c0.073-0.054,0.145-0.111,0.218-0.167c-0.987,5.662-2.714,11.136-5.104,16.221l7.509,2.806 c1.698-5.797,2.631-11.748,2.814-17.669c0.107,0.076,0.215,0.152,0.324,0.225c3.142,2.114,6.863,3.232,10.607,3.796 C76.352,88.379,91.161,82.628,100,71.71C96.061,69.427,91.816,67.684,87.422,66.495z"></path>
</g><g transform="translate(-100 119.95748607214786) rotate(0)">
  <animateTransform begin="-21.408025232011138s" repeatCount="indefinite" dur="33.333333333333336s" values="-100 119.95748607214786;1405.9036559664075 888" keyTimes="0;1" type="translate" attributeName="transform"></animateTransform>
  <animateTransform additive="sum" repeatCount="indefinite" dur="33.333333333333336s" values="0 50 50;61.41618344439244 50 50" begin="-21.408025232011138s" keyTimes="0;1" type="rotate" attributeName="transform"></animateTransform>
  <path transform="scale(0.7015542270833056)" fill="#ffc46c" d="M87.422,66.495c-2.009-0.544-4.049-0.97-6.107-1.283c10.617-11.116,15.747-27.37,13.129-42.549 c-5.236,1.77-10.223,4.252-14.824,7.313c-4.13,2.747-7.948,5.961-11.374,9.55C67.425,24.863,61.344,10.451,50.991,0 c-4.015,5.451-7.281,11.444-9.753,17.744c-3.579,9.122-5.501,18.893-5.669,28.691c-4.79-7.979-11.256-14.955-18.858-20.322 c-4.514-3.187-9.431-5.806-14.616-7.72c-3.361,16.717,2.731,35.015,15.445,46.379c0.369,0.33,0.745,0.654,1.126,0.972 c-2.359,0.411-4.689,0.983-6.969,1.714C7.582,68.775,3.634,70.61,0,72.945c8.85,9.963,23.134,14.771,36.208,12.186 c3.524-0.697,7.002-1.919,9.887-4.057c0.073-0.054,0.145-0.111,0.218-0.167c-0.987,5.662-2.714,11.136-5.104,16.221l7.509,2.806 c1.698-5.797,2.631-11.748,2.814-17.669c0.107,0.076,0.215,0.152,0.324,0.225c3.142,2.114,6.863,3.232,10.607,3.796 C76.352,88.379,91.161,82.628,100,71.71C96.061,69.427,91.816,67.684,87.422,66.495z"></path>
</g><g transform="translate(723.9609605716392 -100) rotate(0)">
  <animateTransform begin="-0.5163195953047847s" repeatCount="indefinite" dur="33.333333333333336s" values="723.9609605716392 -100;2267.9270095209977 888" keyTimes="0;1" type="translate" attributeName="transform"></animateTransform>
  <animateTransform additive="sum" repeatCount="indefinite" dur="33.333333333333336s" values="0 50 50;179.22199204850696 50 50" begin="-0.5163195953047847s" keyTimes="0;1" type="rotate" attributeName="transform"></animateTransform>
  <path transform="scale(0.8693379446829541)" fill="#ffc46c" d="M87.422,66.495c-2.009-0.544-4.049-0.97-6.107-1.283c10.617-11.116,15.747-27.37,13.129-42.549 c-5.236,1.77-10.223,4.252-14.824,7.313c-4.13,2.747-7.948,5.961-11.374,9.55C67.425,24.863,61.344,10.451,50.991,0 c-4.015,5.451-7.281,11.444-9.753,17.744c-3.579,9.122-5.501,18.893-5.669,28.691c-4.79-7.979-11.256-14.955-18.858-20.322 c-4.514-3.187-9.431-5.806-14.616-7.72c-3.361,16.717,2.731,35.015,15.445,46.379c0.369,0.33,0.745,0.654,1.126,0.972 c-2.359,0.411-4.689,0.983-6.969,1.714C7.582,68.775,3.634,70.61,0,72.945c8.85,9.963,23.134,14.771,36.208,12.186 c3.524-0.697,7.002-1.919,9.887-4.057c0.073-0.054,0.145-0.111,0.218-0.167c-0.987,5.662-2.714,11.136-5.104,16.221l7.509,2.806 c1.698-5.797,2.631-11.748,2.814-17.669c0.107,0.076,0.215,0.152,0.324,0.225c3.142,2.114,6.863,3.232,10.607,3.796 C76.352,88.379,91.161,82.628,100,71.71C96.061,69.427,91.816,67.684,87.422,66.495z"></path>
</g><g transform="translate(-100 379.83825640690225) rotate(0)">
  <animateTransform begin="-7.591731813119057s" repeatCount="indefinite" dur="33.333333333333336s" values="-100 379.83825640690225;910.0631254292073 888" keyTimes="0;1" type="translate" attributeName="transform"></animateTransform>
  <animateTransform additive="sum" repeatCount="indefinite" dur="33.333333333333336s" values="0 50 50;74.05764700727266 50 50" begin="-7.591731813119057s" keyTimes="0;1" type="rotate" attributeName="transform"></animateTransform>
  <path transform="scale(0.9615935351978134)" fill="#ff956e" d="M87.422,66.495c-2.009-0.544-4.049-0.97-6.107-1.283c10.617-11.116,15.747-27.37,13.129-42.549 c-5.236,1.77-10.223,4.252-14.824,7.313c-4.13,2.747-7.948,5.961-11.374,9.55C67.425,24.863,61.344,10.451,50.991,0 c-4.015,5.451-7.281,11.444-9.753,17.744c-3.579,9.122-5.501,18.893-5.669,28.691c-4.79-7.979-11.256-14.955-18.858-20.322 c-4.514-3.187-9.431-5.806-14.616-7.72c-3.361,16.717,2.731,35.015,15.445,46.379c0.369,0.33,0.745,0.654,1.126,0.972 c-2.359,0.411-4.689,0.983-6.969,1.714C7.582,68.775,3.634,70.61,0,72.945c8.85,9.963,23.134,14.771,36.208,12.186 c3.524-0.697,7.002-1.919,9.887-4.057c0.073-0.054,0.145-0.111,0.218-0.167c-0.987,5.662-2.714,11.136-5.104,16.221l7.509,2.806 c1.698-5.797,2.631-11.748,2.814-17.669c0.107,0.076,0.215,0.152,0.324,0.225c3.142,2.114,6.863,3.232,10.607,3.796 C76.352,88.379,91.161,82.628,100,71.71C96.061,69.427,91.816,67.684,87.422,66.495z"></path>
</g><g transform="translate(-100 14.51108198795622) rotate(0)">
  <animateTransform begin="-29.541208139775726s" repeatCount="indefinite" dur="33.333333333333336s" values="-100 14.51108198795622;1244 472.0999805876825" keyTimes="0;1" type="translate" attributeName="transform"></animateTransform>
  <animateTransform additive="sum" repeatCount="indefinite" dur="33.333333333333336s" values="0 50 50;828.5472980088716 50 50" begin="-29.541208139775726s" keyTimes="0;1" type="rotate" attributeName="transform"></animateTransform>
  <path transform="scale(1.1145963742911122)" fill="#ffc46c" d="M87.422,66.495c-2.009-0.544-4.049-0.97-6.107-1.283c10.617-11.116,15.747-27.37,13.129-42.549 c-5.236,1.77-10.223,4.252-14.824,7.313c-4.13,2.747-7.948,5.961-11.374,9.55C67.425,24.863,61.344,10.451,50.991,0 c-4.015,5.451-7.281,11.444-9.753,17.744c-3.579,9.122-5.501,18.893-5.669,28.691c-4.79-7.979-11.256-14.955-18.858-20.322 c-4.514-3.187-9.431-5.806-14.616-7.72c-3.361,16.717,2.731,35.015,15.445,46.379c0.369,0.33,0.745,0.654,1.126,0.972 c-2.359,0.411-4.689,0.983-6.969,1.714C7.582,68.775,3.634,70.61,0,72.945c8.85,9.963,23.134,14.771,36.208,12.186 c3.524-0.697,7.002-1.919,9.887-4.057c0.073-0.054,0.145-0.111,0.218-0.167c-0.987,5.662-2.714,11.136-5.104,16.221l7.509,2.806 c1.698-5.797,2.631-11.748,2.814-17.669c0.107,0.076,0.215,0.152,0.324,0.225c3.142,2.114,6.863,3.232,10.607,3.796 C76.352,88.379,91.161,82.628,100,71.71C96.061,69.427,91.816,67.684,87.422,66.495z"></path>
</g><g transform="translate(1096.7496715593186 -100) rotate(0)">
  <animateTransform begin="-31.771714819781852s" repeatCount="indefinite" dur="33.333333333333336s" values="1096.7496715593186 -100;2010.6302667247814 888" keyTimes="0;1" type="translate" attributeName="transform"></animateTransform>
  <animateTransform additive="sum" repeatCount="indefinite" dur="33.333333333333336s" values="0 50 50;554.8658367836783 50 50" begin="-31.771714819781852s" keyTimes="0;1" type="rotate" attributeName="transform"></animateTransform>
  <path transform="scale(0.7104958517412984)" fill="#ff9f32" d="M87.422,66.495c-2.009-0.544-4.049-0.97-6.107-1.283c10.617-11.116,15.747-27.37,13.129-42.549 c-5.236,1.77-10.223,4.252-14.824,7.313c-4.13,2.747-7.948,5.961-11.374,9.55C67.425,24.863,61.344,10.451,50.991,0 c-4.015,5.451-7.281,11.444-9.753,17.744c-3.579,9.122-5.501,18.893-5.669,28.691c-4.79-7.979-11.256-14.955-18.858-20.322 c-4.514-3.187-9.431-5.806-14.616-7.72c-3.361,16.717,2.731,35.015,15.445,46.379c0.369,0.33,0.745,0.654,1.126,0.972 c-2.359,0.411-4.689,0.983-6.969,1.714C7.582,68.775,3.634,70.61,0,72.945c8.85,9.963,23.134,14.771,36.208,12.186 c3.524-0.697,7.002-1.919,9.887-4.057c0.073-0.054,0.145-0.111,0.218-0.167c-0.987,5.662-2.714,11.136-5.104,16.221l7.509,2.806 c1.698-5.797,2.631-11.748,2.814-17.669c0.107,0.076,0.215,0.152,0.324,0.225c3.142,2.114,6.863,3.232,10.607,3.796 C76.352,88.379,91.161,82.628,100,71.71C96.061,69.427,91.816,67.684,87.422,66.495z"></path>
</g><g transform="translate(-100 319.03073623583936) rotate(0)">
  <animateTransform begin="-29.034579338673684s" repeatCount="indefinite" dur="33.333333333333336s" values="-100 319.03073623583936;896.8436989829472 888" keyTimes="0;1" type="translate" attributeName="transform"></animateTransform>
  <animateTransform additive="sum" repeatCount="indefinite" dur="33.333333333333336s" values="0 50 50;1027.2636497338917 50 50" begin="-29.034579338673684s" keyTimes="0;1" type="rotate" attributeName="transform"></animateTransform>
  <path transform="scale(0.5275961762587449)" fill="#ff956e" d="M87.422,66.495c-2.009-0.544-4.049-0.97-6.107-1.283c10.617-11.116,15.747-27.37,13.129-42.549 c-5.236,1.77-10.223,4.252-14.824,7.313c-4.13,2.747-7.948,5.961-11.374,9.55C67.425,24.863,61.344,10.451,50.991,0 c-4.015,5.451-7.281,11.444-9.753,17.744c-3.579,9.122-5.501,18.893-5.669,28.691c-4.79-7.979-11.256-14.955-18.858-20.322 c-4.514-3.187-9.431-5.806-14.616-7.72c-3.361,16.717,2.731,35.015,15.445,46.379c0.369,0.33,0.745,0.654,1.126,0.972 c-2.359,0.411-4.689,0.983-6.969,1.714C7.582,68.775,3.634,70.61,0,72.945c8.85,9.963,23.134,14.771,36.208,12.186 c3.524-0.697,7.002-1.919,9.887-4.057c0.073-0.054,0.145-0.111,0.218-0.167c-0.987,5.662-2.714,11.136-5.104,16.221l7.509,2.806 c1.698-5.797,2.631-11.748,2.814-17.669c0.107,0.076,0.215,0.152,0.324,0.225c3.142,2.114,6.863,3.232,10.607,3.796 C76.352,88.379,91.161,82.628,100,71.71C96.061,69.427,91.816,67.684,87.422,66.495z"></path>
</g><g transform="translate(303.71908759022097 -100) rotate(0)">
  <animateTransform begin="-27.72112811976454s" repeatCount="indefinite" dur="33.333333333333336s" values="303.71908759022097 -100;1244 883.6917546055508" keyTimes="0;1" type="translate" attributeName="transform"></animateTransform>
  <animateTransform additive="sum" repeatCount="indefinite" dur="33.333333333333336s" values="0 50 50;611.2272557039311 50 50" begin="-27.72112811976454s" keyTimes="0;1" type="rotate" attributeName="transform"></animateTransform>
  <path transform="scale(0.7049118491717193)" fill="#f86161" d="M87.422,66.495c-2.009-0.544-4.049-0.97-6.107-1.283c10.617-11.116,15.747-27.37,13.129-42.549 c-5.236,1.77-10.223,4.252-14.824,7.313c-4.13,2.747-7.948,5.961-11.374,9.55C67.425,24.863,61.344,10.451,50.991,0 c-4.015,5.451-7.281,11.444-9.753,17.744c-3.579,9.122-5.501,18.893-5.669,28.691c-4.79-7.979-11.256-14.955-18.858-20.322 c-4.514-3.187-9.431-5.806-14.616-7.72c-3.361,16.717,2.731,35.015,15.445,46.379c0.369,0.33,0.745,0.654,1.126,0.972 c-2.359,0.411-4.689,0.983-6.969,1.714C7.582,68.775,3.634,70.61,0,72.945c8.85,9.963,23.134,14.771,36.208,12.186 c3.524-0.697,7.002-1.919,9.887-4.057c0.073-0.054,0.145-0.111,0.218-0.167c-0.987,5.662-2.714,11.136-5.104,16.221l7.509,2.806 c1.698-5.797,2.631-11.748,2.814-17.669c0.107,0.076,0.215,0.152,0.324,0.225c3.142,2.114,6.863,3.232,10.607,3.796 C76.352,88.379,91.161,82.628,100,71.71C96.061,69.427,91.816,67.684,87.422,66.495z"></path>
</g><g transform="translate(-100 4.383614084300569) rotate(0)">
  <animateTransform begin="-6.0816376694457s" repeatCount="indefinite" dur="33.333333333333336s" values="-100 4.383614084300569;1523.246045289393 888" keyTimes="0;1" type="translate" attributeName="transform"></animateTransform>
  <animateTransform additive="sum" repeatCount="indefinite" dur="33.333333333333336s" values="0 50 50;335.77396604780745 50 50" begin="-6.0816376694457s" keyTimes="0;1" type="rotate" attributeName="transform"></animateTransform>
  <path transform="scale(0.6925639005898336)" fill="#ff9f32" d="M87.422,66.495c-2.009-0.544-4.049-0.97-6.107-1.283c10.617-11.116,15.747-27.37,13.129-42.549 c-5.236,1.77-10.223,4.252-14.824,7.313c-4.13,2.747-7.948,5.961-11.374,9.55C67.425,24.863,61.344,10.451,50.991,0 c-4.015,5.451-7.281,11.444-9.753,17.744c-3.579,9.122-5.501,18.893-5.669,28.691c-4.79-7.979-11.256-14.955-18.858-20.322 c-4.514-3.187-9.431-5.806-14.616-7.72c-3.361,16.717,2.731,35.015,15.445,46.379c0.369,0.33,0.745,0.654,1.126,0.972 c-2.359,0.411-4.689,0.983-6.969,1.714C7.582,68.775,3.634,70.61,0,72.945c8.85,9.963,23.134,14.771,36.208,12.186 c3.524-0.697,7.002-1.919,9.887-4.057c0.073-0.054,0.145-0.111,0.218-0.167c-0.987,5.662-2.714,11.136-5.104,16.221l7.509,2.806 c1.698-5.797,2.631-11.748,2.814-17.669c0.107,0.076,0.215,0.152,0.324,0.225c3.142,2.114,6.863,3.232,10.607,3.796 C76.352,88.379,91.161,82.628,100,71.71C96.061,69.427,91.816,67.684,87.422,66.495z"></path>
</g><g transform="translate(-100 350.3734931907607) rotate(0)">
  <animateTransform begin="-16.68856688181528s" repeatCount="indefinite" dur="33.333333333333336s" values="-100 350.3734931907607;1244 1005.8687717476992" keyTimes="0;1" type="translate" attributeName="transform"></animateTransform>
  <animateTransform additive="sum" repeatCount="indefinite" dur="33.333333333333336s" values="0 50 50;51.16886823385414 50 50" begin="-16.68856688181528s" keyTimes="0;1" type="rotate" attributeName="transform"></animateTransform>
  <path transform="scale(0.8214876992994526)" fill="#ff9f32" d="M87.422,66.495c-2.009-0.544-4.049-0.97-6.107-1.283c10.617-11.116,15.747-27.37,13.129-42.549 c-5.236,1.77-10.223,4.252-14.824,7.313c-4.13,2.747-7.948,5.961-11.374,9.55C67.425,24.863,61.344,10.451,50.991,0 c-4.015,5.451-7.281,11.444-9.753,17.744c-3.579,9.122-5.501,18.893-5.669,28.691c-4.79-7.979-11.256-14.955-18.858-20.322 c-4.514-3.187-9.431-5.806-14.616-7.72c-3.361,16.717,2.731,35.015,15.445,46.379c0.369,0.33,0.745,0.654,1.126,0.972 c-2.359,0.411-4.689,0.983-6.969,1.714C7.582,68.775,3.634,70.61,0,72.945c8.85,9.963,23.134,14.771,36.208,12.186 c3.524-0.697,7.002-1.919,9.887-4.057c0.073-0.054,0.145-0.111,0.218-0.167c-0.987,5.662-2.714,11.136-5.104,16.221l7.509,2.806 c1.698-5.797,2.631-11.748,2.814-17.669c0.107,0.076,0.215,0.152,0.324,0.225c3.142,2.114,6.863,3.232,10.607,3.796 C76.352,88.379,91.161,82.628,100,71.71C96.061,69.427,91.816,67.684,87.422,66.495z"></path>
</g><g transform="translate(-100 366.13688747620057) rotate(0)">
  <animateTransform begin="-5.880587597131424s" repeatCount="indefinite" dur="33.333333333333336s" values="-100 366.13688747620057;1244 1116.4398264325157" keyTimes="0;1" type="translate" attributeName="transform"></animateTransform>
  <animateTransform additive="sum" repeatCount="indefinite" dur="33.333333333333336s" values="0 50 50;305.186774374563 50 50" begin="-5.880587597131424s" keyTimes="0;1" type="rotate" attributeName="transform"></animateTransform>
  <path transform="scale(1.1116444118545599)" fill="#ffc46c" d="M87.422,66.495c-2.009-0.544-4.049-0.97-6.107-1.283c10.617-11.116,15.747-27.37,13.129-42.549 c-5.236,1.77-10.223,4.252-14.824,7.313c-4.13,2.747-7.948,5.961-11.374,9.55C67.425,24.863,61.344,10.451,50.991,0 c-4.015,5.451-7.281,11.444-9.753,17.744c-3.579,9.122-5.501,18.893-5.669,28.691c-4.79-7.979-11.256-14.955-18.858-20.322 c-4.514-3.187-9.431-5.806-14.616-7.72c-3.361,16.717,2.731,35.015,15.445,46.379c0.369,0.33,0.745,0.654,1.126,0.972 c-2.359,0.411-4.689,0.983-6.969,1.714C7.582,68.775,3.634,70.61,0,72.945c8.85,9.963,23.134,14.771,36.208,12.186 c3.524-0.697,7.002-1.919,9.887-4.057c0.073-0.054,0.145-0.111,0.218-0.167c-0.987,5.662-2.714,11.136-5.104,16.221l7.509,2.806 c1.698-5.797,2.631-11.748,2.814-17.669c0.107,0.076,0.215,0.152,0.324,0.225c3.142,2.114,6.863,3.232,10.607,3.796 C76.352,88.379,91.161,82.628,100,71.71C96.061,69.427,91.816,67.684,87.422,66.495z"></path>
</g><g transform="translate(973.6958388488664 -100) rotate(0)">
  <animateTransform begin="-12.869142495141926s" repeatCount="indefinite" dur="33.333333333333336s" values="973.6958388488664 -100;1787.4096365271532 888" keyTimes="0;1" type="translate" attributeName="transform"></animateTransform>
  <animateTransform additive="sum" repeatCount="indefinite" dur="33.333333333333336s" values="0 50 50;857.405175233409 50 50" begin="-12.869142495141926s" keyTimes="0;1" type="rotate" attributeName="transform"></animateTransform>
  <path transform="scale(0.6973280678845963)" fill="#ffc46c" d="M87.422,66.495c-2.009-0.544-4.049-0.97-6.107-1.283c10.617-11.116,15.747-27.37,13.129-42.549 c-5.236,1.77-10.223,4.252-14.824,7.313c-4.13,2.747-7.948,5.961-11.374,9.55C67.425,24.863,61.344,10.451,50.991,0 c-4.015,5.451-7.281,11.444-9.753,17.744c-3.579,9.122-5.501,18.893-5.669,28.691c-4.79-7.979-11.256-14.955-18.858-20.322 c-4.514-3.187-9.431-5.806-14.616-7.72c-3.361,16.717,2.731,35.015,15.445,46.379c0.369,0.33,0.745,0.654,1.126,0.972 c-2.359,0.411-4.689,0.983-6.969,1.714C7.582,68.775,3.634,70.61,0,72.945c8.85,9.963,23.134,14.771,36.208,12.186 c3.524-0.697,7.002-1.919,9.887-4.057c0.073-0.054,0.145-0.111,0.218-0.167c-0.987,5.662-2.714,11.136-5.104,16.221l7.509,2.806 c1.698-5.797,2.631-11.748,2.814-17.669c0.107,0.076,0.215,0.152,0.324,0.225c3.142,2.114,6.863,3.232,10.607,3.796 C76.352,88.379,91.161,82.628,100,71.71C96.061,69.427,91.816,67.684,87.422,66.495z"></path>
</g><g transform="translate(703.7463657821085 -100) rotate(0)">
  <animateTransform begin="-3.098524499206738s" repeatCount="indefinite" dur="33.333333333333336s" values="703.7463657821085 -100;1305.5748693208707 888" keyTimes="0;1" type="translate" attributeName="transform"></animateTransform>
  <animateTransform additive="sum" repeatCount="indefinite" dur="33.333333333333336s" values="0 50 50;1036.2312143666159 50 50" begin="-3.098524499206738s" keyTimes="0;1" type="rotate" attributeName="transform"></animateTransform>
  <path transform="scale(0.9560995835065127)" fill="#ffc46c" d="M87.422,66.495c-2.009-0.544-4.049-0.97-6.107-1.283c10.617-11.116,15.747-27.37,13.129-42.549 c-5.236,1.77-10.223,4.252-14.824,7.313c-4.13,2.747-7.948,5.961-11.374,9.55C67.425,24.863,61.344,10.451,50.991,0 c-4.015,5.451-7.281,11.444-9.753,17.744c-3.579,9.122-5.501,18.893-5.669,28.691c-4.79-7.979-11.256-14.955-18.858-20.322 c-4.514-3.187-9.431-5.806-14.616-7.72c-3.361,16.717,2.731,35.015,15.445,46.379c0.369,0.33,0.745,0.654,1.126,0.972 c-2.359,0.411-4.689,0.983-6.969,1.714C7.582,68.775,3.634,70.61,0,72.945c8.85,9.963,23.134,14.771,36.208,12.186 c3.524-0.697,7.002-1.919,9.887-4.057c0.073-0.054,0.145-0.111,0.218-0.167c-0.987,5.662-2.714,11.136-5.104,16.221l7.509,2.806 c1.698-5.797,2.631-11.748,2.814-17.669c0.107,0.076,0.215,0.152,0.324,0.225c3.142,2.114,6.863,3.232,10.607,3.796 C76.352,88.379,91.161,82.628,100,71.71C96.061,69.427,91.816,67.684,87.422,66.495z"></path>
</g><g transform="translate(666.5396048770381 -100) rotate(0)">
  <animateTransform begin="-30.627755234773502s" repeatCount="indefinite" dur="33.333333333333336s" values="666.5396048770381 -100;1244 1065.776564072851" keyTimes="0;1" type="translate" attributeName="transform"></animateTransform>
  <animateTransform additive="sum" repeatCount="indefinite" dur="33.333333333333336s" values="0 50 50;75.74282548159233 50 50" begin="-30.627755234773502s" keyTimes="0;1" type="rotate" attributeName="transform"></animateTransform>
  <path transform="scale(0.9844849172874366)" fill="#ff9f32" d="M87.422,66.495c-2.009-0.544-4.049-0.97-6.107-1.283c10.617-11.116,15.747-27.37,13.129-42.549 c-5.236,1.77-10.223,4.252-14.824,7.313c-4.13,2.747-7.948,5.961-11.374,9.55C67.425,24.863,61.344,10.451,50.991,0 c-4.015,5.451-7.281,11.444-9.753,17.744c-3.579,9.122-5.501,18.893-5.669,28.691c-4.79-7.979-11.256-14.955-18.858-20.322 c-4.514-3.187-9.431-5.806-14.616-7.72c-3.361,16.717,2.731,35.015,15.445,46.379c0.369,0.33,0.745,0.654,1.126,0.972 c-2.359,0.411-4.689,0.983-6.969,1.714C7.582,68.775,3.634,70.61,0,72.945c8.85,9.963,23.134,14.771,36.208,12.186 c3.524-0.697,7.002-1.919,9.887-4.057c0.073-0.054,0.145-0.111,0.218-0.167c-0.987,5.662-2.714,11.136-5.104,16.221l7.509,2.806 c1.698-5.797,2.631-11.748,2.814-17.669c0.107,0.076,0.215,0.152,0.324,0.225c3.142,2.114,6.863,3.232,10.607,3.796 C76.352,88.379,91.161,82.628,100,71.71C96.061,69.427,91.816,67.684,87.422,66.495z"></path>
</g><g transform="translate(-100 256.1834661962791) rotate(0)">
  <animateTransform begin="-30.124216648950878s" repeatCount="indefinite" dur="33.333333333333336s" values="-100 256.1834661962791;842.5085843845826 888" keyTimes="0;1" type="translate" attributeName="transform"></animateTransform>
  <animateTransform additive="sum" repeatCount="indefinite" dur="33.333333333333336s" values="0 50 50;277.3250280662696 50 50" begin="-30.124216648950878s" keyTimes="0;1" type="rotate" attributeName="transform"></animateTransform>
  <path transform="scale(0.7904956869295613)" fill="#f86161" d="M87.422,66.495c-2.009-0.544-4.049-0.97-6.107-1.283c10.617-11.116,15.747-27.37,13.129-42.549 c-5.236,1.77-10.223,4.252-14.824,7.313c-4.13,2.747-7.948,5.961-11.374,9.55C67.425,24.863,61.344,10.451,50.991,0 c-4.015,5.451-7.281,11.444-9.753,17.744c-3.579,9.122-5.501,18.893-5.669,28.691c-4.79-7.979-11.256-14.955-18.858-20.322 c-4.514-3.187-9.431-5.806-14.616-7.72c-3.361,16.717,2.731,35.015,15.445,46.379c0.369,0.33,0.745,0.654,1.126,0.972 c-2.359,0.411-4.689,0.983-6.969,1.714C7.582,68.775,3.634,70.61,0,72.945c8.85,9.963,23.134,14.771,36.208,12.186 c3.524-0.697,7.002-1.919,9.887-4.057c0.073-0.054,0.145-0.111,0.218-0.167c-0.987,5.662-2.714,11.136-5.104,16.221l7.509,2.806 c1.698-5.797,2.631-11.748,2.814-17.669c0.107,0.076,0.215,0.152,0.324,0.225c3.142,2.114,6.863,3.232,10.607,3.796 C76.352,88.379,91.161,82.628,100,71.71C96.061,69.427,91.816,67.684,87.422,66.495z"></path>
</g><g transform="translate(-100 39.1586926208819) rotate(0)">
  <animateTransform begin="-27.979683378680917s" repeatCount="indefinite" dur="33.333333333333336s" values="-100 39.1586926208819;1244 955.0199012229081" keyTimes="0;1" type="translate" attributeName="transform"></animateTransform>
  <animateTransform additive="sum" repeatCount="indefinite" dur="33.333333333333336s" values="0 50 50;673.425119630008 50 50" begin="-27.979683378680917s" keyTimes="0;1" type="rotate" attributeName="transform"></animateTransform>
  <path transform="scale(0.8634266798579153)" fill="#ff956e" d="M87.422,66.495c-2.009-0.544-4.049-0.97-6.107-1.283c10.617-11.116,15.747-27.37,13.129-42.549 c-5.236,1.77-10.223,4.252-14.824,7.313c-4.13,2.747-7.948,5.961-11.374,9.55C67.425,24.863,61.344,10.451,50.991,0 c-4.015,5.451-7.281,11.444-9.753,17.744c-3.579,9.122-5.501,18.893-5.669,28.691c-4.79-7.979-11.256-14.955-18.858-20.322 c-4.514-3.187-9.431-5.806-14.616-7.72c-3.361,16.717,2.731,35.015,15.445,46.379c0.369,0.33,0.745,0.654,1.126,0.972 c-2.359,0.411-4.689,0.983-6.969,1.714C7.582,68.775,3.634,70.61,0,72.945c8.85,9.963,23.134,14.771,36.208,12.186 c3.524-0.697,7.002-1.919,9.887-4.057c0.073-0.054,0.145-0.111,0.218-0.167c-0.987,5.662-2.714,11.136-5.104,16.221l7.509,2.806 c1.698-5.797,2.631-11.748,2.814-17.669c0.107,0.076,0.215,0.152,0.324,0.225c3.142,2.114,6.863,3.232,10.607,3.796 C76.352,88.379,91.161,82.628,100,71.71C96.061,69.427,91.816,67.684,87.422,66.495z"></path>
</g><g transform="translate(-100 16.370795410380488) rotate(0)">
  <animateTransform begin="-24.46948067314196s" repeatCount="indefinite" dur="33.333333333333336s" values="-100 16.370795410380488;1244 967.3075737343369" keyTimes="0;1" type="translate" attributeName="transform"></animateTransform>
  <animateTransform additive="sum" repeatCount="indefinite" dur="33.333333333333336s" values="0 50 50;318.60205444767695 50 50" begin="-24.46948067314196s" keyTimes="0;1" type="rotate" attributeName="transform"></animateTransform>
  <path transform="scale(0.9242862411791299)" fill="#ff9f32" d="M87.422,66.495c-2.009-0.544-4.049-0.97-6.107-1.283c10.617-11.116,15.747-27.37,13.129-42.549 c-5.236,1.77-10.223,4.252-14.824,7.313c-4.13,2.747-7.948,5.961-11.374,9.55C67.425,24.863,61.344,10.451,50.991,0 c-4.015,5.451-7.281,11.444-9.753,17.744c-3.579,9.122-5.501,18.893-5.669,28.691c-4.79-7.979-11.256-14.955-18.858-20.322 c-4.514-3.187-9.431-5.806-14.616-7.72c-3.361,16.717,2.731,35.015,15.445,46.379c0.369,0.33,0.745,0.654,1.126,0.972 c-2.359,0.411-4.689,0.983-6.969,1.714C7.582,68.775,3.634,70.61,0,72.945c8.85,9.963,23.134,14.771,36.208,12.186 c3.524-0.697,7.002-1.919,9.887-4.057c0.073-0.054,0.145-0.111,0.218-0.167c-0.987,5.662-2.714,11.136-5.104,16.221l7.509,2.806 c1.698-5.797,2.631-11.748,2.814-17.669c0.107,0.076,0.215,0.152,0.324,0.225c3.142,2.114,6.863,3.232,10.607,3.796 C76.352,88.379,91.161,82.628,100,71.71C96.061,69.427,91.816,67.684,87.422,66.495z"></path>
</g><g transform="translate(-100 350.31428022560664) rotate(0)">
  <animateTransform begin="-28.156331760054936s" repeatCount="indefinite" dur="33.333333333333336s" values="-100 350.31428022560664;1244 1428.002846558933" keyTimes="0;1" type="translate" attributeName="transform"></animateTransform>
  <animateTransform additive="sum" repeatCount="indefinite" dur="33.333333333333336s" values="0 50 50;819.1810263667136 50 50" begin="-28.156331760054936s" keyTimes="0;1" type="rotate" attributeName="transform"></animateTransform>
  <path transform="scale(0.8501789614457999)" fill="#f86161" d="M87.422,66.495c-2.009-0.544-4.049-0.97-6.107-1.283c10.617-11.116,15.747-27.37,13.129-42.549 c-5.236,1.77-10.223,4.252-14.824,7.313c-4.13,2.747-7.948,5.961-11.374,9.55C67.425,24.863,61.344,10.451,50.991,0 c-4.015,5.451-7.281,11.444-9.753,17.744c-3.579,9.122-5.501,18.893-5.669,28.691c-4.79-7.979-11.256-14.955-18.858-20.322 c-4.514-3.187-9.431-5.806-14.616-7.72c-3.361,16.717,2.731,35.015,15.445,46.379c0.369,0.33,0.745,0.654,1.126,0.972 c-2.359,0.411-4.689,0.983-6.969,1.714C7.582,68.775,3.634,70.61,0,72.945c8.85,9.963,23.134,14.771,36.208,12.186 c3.524-0.697,7.002-1.919,9.887-4.057c0.073-0.054,0.145-0.111,0.218-0.167c-0.987,5.662-2.714,11.136-5.104,16.221l7.509,2.806 c1.698-5.797,2.631-11.748,2.814-17.669c0.107,0.076,0.215,0.152,0.324,0.225c3.142,2.114,6.863,3.232,10.607,3.796 C76.352,88.379,91.161,82.628,100,71.71C96.061,69.427,91.816,67.684,87.422,66.495z"></path>
</g><g transform="translate(909.1216819327934 -100) rotate(0)">
  <animateTransform begin="-22.984015944542012s" repeatCount="indefinite" dur="33.333333333333336s" values="909.1216819327934 -100;1244 821.1991224142349" keyTimes="0;1" type="translate" attributeName="transform"></animateTransform>
  <animateTransform additive="sum" repeatCount="indefinite" dur="33.333333333333336s" values="0 50 50;956.2756378945957 50 50" begin="-22.984015944542012s" keyTimes="0;1" type="rotate" attributeName="transform"></animateTransform>
  <path transform="scale(1.0589128547306348)" fill="#f86161" d="M87.422,66.495c-2.009-0.544-4.049-0.97-6.107-1.283c10.617-11.116,15.747-27.37,13.129-42.549 c-5.236,1.77-10.223,4.252-14.824,7.313c-4.13,2.747-7.948,5.961-11.374,9.55C67.425,24.863,61.344,10.451,50.991,0 c-4.015,5.451-7.281,11.444-9.753,17.744c-3.579,9.122-5.501,18.893-5.669,28.691c-4.79-7.979-11.256-14.955-18.858-20.322 c-4.514-3.187-9.431-5.806-14.616-7.72c-3.361,16.717,2.731,35.015,15.445,46.379c0.369,0.33,0.745,0.654,1.126,0.972 c-2.359,0.411-4.689,0.983-6.969,1.714C7.582,68.775,3.634,70.61,0,72.945c8.85,9.963,23.134,14.771,36.208,12.186 c3.524-0.697,7.002-1.919,9.887-4.057c0.073-0.054,0.145-0.111,0.218-0.167c-0.987,5.662-2.714,11.136-5.104,16.221l7.509,2.806 c1.698-5.797,2.631-11.748,2.814-17.669c0.107,0.076,0.215,0.152,0.324,0.225c3.142,2.114,6.863,3.232,10.607,3.796 C76.352,88.379,91.161,82.628,100,71.71C96.061,69.427,91.816,67.684,87.422,66.495z"></path>
</g><g transform="translate(450.76071328585556 -100) rotate(0)">
  <animateTransform begin="-10.216806415597512s" repeatCount="indefinite" dur="33.333333333333336s" values="450.76071328585556 -100;1132.5420503156356 888" keyTimes="0;1" type="translate" attributeName="transform"></animateTransform>
  <animateTransform additive="sum" repeatCount="indefinite" dur="33.333333333333336s" values="0 50 50;43.764811943122766 50 50" begin="-10.216806415597512s" keyTimes="0;1" type="rotate" attributeName="transform"></animateTransform>
  <path transform="scale(0.528912356394814)" fill="#ff9f32" d="M87.422,66.495c-2.009-0.544-4.049-0.97-6.107-1.283c10.617-11.116,15.747-27.37,13.129-42.549 c-5.236,1.77-10.223,4.252-14.824,7.313c-4.13,2.747-7.948,5.961-11.374,9.55C67.425,24.863,61.344,10.451,50.991,0 c-4.015,5.451-7.281,11.444-9.753,17.744c-3.579,9.122-5.501,18.893-5.669,28.691c-4.79-7.979-11.256-14.955-18.858-20.322 c-4.514-3.187-9.431-5.806-14.616-7.72c-3.361,16.717,2.731,35.015,15.445,46.379c0.369,0.33,0.745,0.654,1.126,0.972 c-2.359,0.411-4.689,0.983-6.969,1.714C7.582,68.775,3.634,70.61,0,72.945c8.85,9.963,23.134,14.771,36.208,12.186 c3.524-0.697,7.002-1.919,9.887-4.057c0.073-0.054,0.145-0.111,0.218-0.167c-0.987,5.662-2.714,11.136-5.104,16.221l7.509,2.806 c1.698-5.797,2.631-11.748,2.814-17.669c0.107,0.076,0.215,0.152,0.324,0.225c3.142,2.114,6.863,3.232,10.607,3.796 C76.352,88.379,91.161,82.628,100,71.71C96.061,69.427,91.816,67.684,87.422,66.495z"></path>
</g><g transform="translate(-100 179.05061516524304) rotate(0)">
  <animateTransform begin="-24.180590376316182s" repeatCount="indefinite" dur="33.333333333333336s" values="-100 179.05061516524304;700.6739976331341 888" keyTimes="0;1" type="translate" attributeName="transform"></animateTransform>
  <animateTransform additive="sum" repeatCount="indefinite" dur="33.333333333333336s" values="0 50 50;107.39772416414321 50 50" begin="-24.180590376316182s" keyTimes="0;1" type="rotate" attributeName="transform"></animateTransform>
  <path transform="scale(0.7834071134809615)" fill="#ffc46c" d="M87.422,66.495c-2.009-0.544-4.049-0.97-6.107-1.283c10.617-11.116,15.747-27.37,13.129-42.549 c-5.236,1.77-10.223,4.252-14.824,7.313c-4.13,2.747-7.948,5.961-11.374,9.55C67.425,24.863,61.344,10.451,50.991,0 c-4.015,5.451-7.281,11.444-9.753,17.744c-3.579,9.122-5.501,18.893-5.669,28.691c-4.79-7.979-11.256-14.955-18.858-20.322 c-4.514-3.187-9.431-5.806-14.616-7.72c-3.361,16.717,2.731,35.015,15.445,46.379c0.369,0.33,0.745,0.654,1.126,0.972 c-2.359,0.411-4.689,0.983-6.969,1.714C7.582,68.775,3.634,70.61,0,72.945c8.85,9.963,23.134,14.771,36.208,12.186 c3.524-0.697,7.002-1.919,9.887-4.057c0.073-0.054,0.145-0.111,0.218-0.167c-0.987,5.662-2.714,11.136-5.104,16.221l7.509,2.806 c1.698-5.797,2.631-11.748,2.814-17.669c0.107,0.076,0.215,0.152,0.324,0.225c3.142,2.114,6.863,3.232,10.607,3.796 C76.352,88.379,91.161,82.628,100,71.71C96.061,69.427,91.816,67.684,87.422,66.495z"></path>
</g><g transform="translate(-100 141.53883386325654) rotate(0)">
  <animateTransform begin="-15.09518605476959s" repeatCount="indefinite" dur="33.333333333333336s" values="-100 141.53883386325654;1402.1986381738145 888" keyTimes="0;1" type="translate" attributeName="transform"></animateTransform>
  <animateTransform additive="sum" repeatCount="indefinite" dur="33.333333333333336s" values="0 50 50;643.8924799862305 50 50" begin="-15.09518605476959s" keyTimes="0;1" type="rotate" attributeName="transform"></animateTransform>
  <path transform="scale(0.67312520374801)" fill="#ffc46c" d="M87.422,66.495c-2.009-0.544-4.049-0.97-6.107-1.283c10.617-11.116,15.747-27.37,13.129-42.549 c-5.236,1.77-10.223,4.252-14.824,7.313c-4.13,2.747-7.948,5.961-11.374,9.55C67.425,24.863,61.344,10.451,50.991,0 c-4.015,5.451-7.281,11.444-9.753,17.744c-3.579,9.122-5.501,18.893-5.669,28.691c-4.79-7.979-11.256-14.955-18.858-20.322 c-4.514-3.187-9.431-5.806-14.616-7.72c-3.361,16.717,2.731,35.015,15.445,46.379c0.369,0.33,0.745,0.654,1.126,0.972 c-2.359,0.411-4.689,0.983-6.969,1.714C7.582,68.775,3.634,70.61,0,72.945c8.85,9.963,23.134,14.771,36.208,12.186 c3.524-0.697,7.002-1.919,9.887-4.057c0.073-0.054,0.145-0.111,0.218-0.167c-0.987,5.662-2.714,11.136-5.104,16.221l7.509,2.806 c1.698-5.797,2.631-11.748,2.814-17.669c0.107,0.076,0.215,0.152,0.324,0.225c3.142,2.114,6.863,3.232,10.607,3.796 C76.352,88.379,91.161,82.628,100,71.71C96.061,69.427,91.816,67.684,87.422,66.495z"></path>
</g><g transform="translate(1078.260011210286 -100) rotate(0)">
  <animateTransform begin="-3.170361285633417s" repeatCount="indefinite" dur="33.333333333333336s" values="1078.260011210286 -100;1244 938.3674298103008" keyTimes="0;1" type="translate" attributeName="transform"></animateTransform>
  <animateTransform additive="sum" repeatCount="indefinite" dur="33.333333333333336s" values="0 50 50;57.30992381961151 50 50" begin="-3.170361285633417s" keyTimes="0;1" type="rotate" attributeName="transform"></animateTransform>
  <path transform="scale(0.7451834238069972)" fill="#f86161" d="M87.422,66.495c-2.009-0.544-4.049-0.97-6.107-1.283c10.617-11.116,15.747-27.37,13.129-42.549 c-5.236,1.77-10.223,4.252-14.824,7.313c-4.13,2.747-7.948,5.961-11.374,9.55C67.425,24.863,61.344,10.451,50.991,0 c-4.015,5.451-7.281,11.444-9.753,17.744c-3.579,9.122-5.501,18.893-5.669,28.691c-4.79-7.979-11.256-14.955-18.858-20.322 c-4.514-3.187-9.431-5.806-14.616-7.72c-3.361,16.717,2.731,35.015,15.445,46.379c0.369,0.33,0.745,0.654,1.126,0.972 c-2.359,0.411-4.689,0.983-6.969,1.714C7.582,68.775,3.634,70.61,0,72.945c8.85,9.963,23.134,14.771,36.208,12.186 c3.524-0.697,7.002-1.919,9.887-4.057c0.073-0.054,0.145-0.111,0.218-0.167c-0.987,5.662-2.714,11.136-5.104,16.221l7.509,2.806 c1.698-5.797,2.631-11.748,2.814-17.669c0.107,0.076,0.215,0.152,0.324,0.225c3.142,2.114,6.863,3.232,10.607,3.796 C76.352,88.379,91.161,82.628,100,71.71C96.061,69.427,91.816,67.684,87.422,66.495z"></path>
</g><g transform="translate(-100 56.682748875483206) rotate(0)">
  <animateTransform begin="-2.1661724527997412s" repeatCount="indefinite" dur="33.333333333333336s" values="-100 56.682748875483206;1597.1342378983636 888" keyTimes="0;1" type="translate" attributeName="transform"></animateTransform>
  <animateTransform additive="sum" repeatCount="indefinite" dur="33.333333333333336s" values="0 50 50;886.9452933410778 50 50" begin="-2.1661724527997412s" keyTimes="0;1" type="rotate" attributeName="transform"></animateTransform>
  <path transform="scale(0.7922197540277656)" fill="#ff9f32" d="M87.422,66.495c-2.009-0.544-4.049-0.97-6.107-1.283c10.617-11.116,15.747-27.37,13.129-42.549 c-5.236,1.77-10.223,4.252-14.824,7.313c-4.13,2.747-7.948,5.961-11.374,9.55C67.425,24.863,61.344,10.451,50.991,0 c-4.015,5.451-7.281,11.444-9.753,17.744c-3.579,9.122-5.501,18.893-5.669,28.691c-4.79-7.979-11.256-14.955-18.858-20.322 c-4.514-3.187-9.431-5.806-14.616-7.72c-3.361,16.717,2.731,35.015,15.445,46.379c0.369,0.33,0.745,0.654,1.126,0.972 c-2.359,0.411-4.689,0.983-6.969,1.714C7.582,68.775,3.634,70.61,0,72.945c8.85,9.963,23.134,14.771,36.208,12.186 c3.524-0.697,7.002-1.919,9.887-4.057c0.073-0.054,0.145-0.111,0.218-0.167c-0.987,5.662-2.714,11.136-5.104,16.221l7.509,2.806 c1.698-5.797,2.631-11.748,2.814-17.669c0.107,0.076,0.215,0.152,0.324,0.225c3.142,2.114,6.863,3.232,10.607,3.796 C76.352,88.379,91.161,82.628,100,71.71C96.061,69.427,91.816,67.684,87.422,66.495z"></path>
</g><g transform="translate(928.4319141753052 -100) rotate(0)">
  <animateTransform begin="-25.284555894469616s" repeatCount="indefinite" dur="33.333333333333336s" values="928.4319141753052 -100;2145.1478629268827 888" keyTimes="0;1" type="translate" attributeName="transform"></animateTransform>
  <animateTransform additive="sum" repeatCount="indefinite" dur="33.333333333333336s" values="0 50 50;640.2512504834722 50 50" begin="-25.284555894469616s" keyTimes="0;1" type="rotate" attributeName="transform"></animateTransform>
  <path transform="scale(0.9543637630857842)" fill="#ffc46c" d="M87.422,66.495c-2.009-0.544-4.049-0.97-6.107-1.283c10.617-11.116,15.747-27.37,13.129-42.549 c-5.236,1.77-10.223,4.252-14.824,7.313c-4.13,2.747-7.948,5.961-11.374,9.55C67.425,24.863,61.344,10.451,50.991,0 c-4.015,5.451-7.281,11.444-9.753,17.744c-3.579,9.122-5.501,18.893-5.669,28.691c-4.79-7.979-11.256-14.955-18.858-20.322 c-4.514-3.187-9.431-5.806-14.616-7.72c-3.361,16.717,2.731,35.015,15.445,46.379c0.369,0.33,0.745,0.654,1.126,0.972 c-2.359,0.411-4.689,0.983-6.969,1.714C7.582,68.775,3.634,70.61,0,72.945c8.85,9.963,23.134,14.771,36.208,12.186 c3.524-0.697,7.002-1.919,9.887-4.057c0.073-0.054,0.145-0.111,0.218-0.167c-0.987,5.662-2.714,11.136-5.104,16.221l7.509,2.806 c1.698-5.797,2.631-11.748,2.814-17.669c0.107,0.076,0.215,0.152,0.324,0.225c3.142,2.114,6.863,3.232,10.607,3.796 C76.352,88.379,91.161,82.628,100,71.71C96.061,69.427,91.816,67.684,87.422,66.495z"></path>
</g><g transform="translate(-100 276.190961822709) rotate(0)">
  <animateTransform begin="-30.354800279576835s" repeatCount="indefinite" dur="33.333333333333336s" values="-100 276.190961822709;1244 1032.5033571111321" keyTimes="0;1" type="translate" attributeName="transform"></animateTransform>
  <animateTransform additive="sum" repeatCount="indefinite" dur="33.333333333333336s" values="0 50 50;172.0264345445288 50 50" begin="-30.354800279576835s" keyTimes="0;1" type="rotate" attributeName="transform"></animateTransform>
  <path transform="scale(0.6042045752684599)" fill="#ff9f32" d="M87.422,66.495c-2.009-0.544-4.049-0.97-6.107-1.283c10.617-11.116,15.747-27.37,13.129-42.549 c-5.236,1.77-10.223,4.252-14.824,7.313c-4.13,2.747-7.948,5.961-11.374,9.55C67.425,24.863,61.344,10.451,50.991,0 c-4.015,5.451-7.281,11.444-9.753,17.744c-3.579,9.122-5.501,18.893-5.669,28.691c-4.79-7.979-11.256-14.955-18.858-20.322 c-4.514-3.187-9.431-5.806-14.616-7.72c-3.361,16.717,2.731,35.015,15.445,46.379c0.369,0.33,0.745,0.654,1.126,0.972 c-2.359,0.411-4.689,0.983-6.969,1.714C7.582,68.775,3.634,70.61,0,72.945c8.85,9.963,23.134,14.771,36.208,12.186 c3.524-0.697,7.002-1.919,9.887-4.057c0.073-0.054,0.145-0.111,0.218-0.167c-0.987,5.662-2.714,11.136-5.104,16.221l7.509,2.806 c1.698-5.797,2.631-11.748,2.814-17.669c0.107,0.076,0.215,0.152,0.324,0.225c3.142,2.114,6.863,3.232,10.607,3.796 C76.352,88.379,91.161,82.628,100,71.71C96.061,69.427,91.816,67.684,87.422,66.495z"></path>
</g><g transform="translate(-100 337.0949946996946) rotate(0)">
  <animateTransform begin="-15.463981674243064s" repeatCount="indefinite" dur="33.333333333333336s" values="-100 337.0949946996946;841.7773139750008 888" keyTimes="0;1" type="translate" attributeName="transform"></animateTransform>
  <animateTransform additive="sum" repeatCount="indefinite" dur="33.333333333333336s" values="0 50 50;175.82347619706275 50 50" begin="-15.463981674243064s" keyTimes="0;1" type="rotate" attributeName="transform"></animateTransform>
  <path transform="scale(0.5009873159818229)" fill="#ff9f32" d="M87.422,66.495c-2.009-0.544-4.049-0.97-6.107-1.283c10.617-11.116,15.747-27.37,13.129-42.549 c-5.236,1.77-10.223,4.252-14.824,7.313c-4.13,2.747-7.948,5.961-11.374,9.55C67.425,24.863,61.344,10.451,50.991,0 c-4.015,5.451-7.281,11.444-9.753,17.744c-3.579,9.122-5.501,18.893-5.669,28.691c-4.79-7.979-11.256-14.955-18.858-20.322 c-4.514-3.187-9.431-5.806-14.616-7.72c-3.361,16.717,2.731,35.015,15.445,46.379c0.369,0.33,0.745,0.654,1.126,0.972 c-2.359,0.411-4.689,0.983-6.969,1.714C7.582,68.775,3.634,70.61,0,72.945c8.85,9.963,23.134,14.771,36.208,12.186 c3.524-0.697,7.002-1.919,9.887-4.057c0.073-0.054,0.145-0.111,0.218-0.167c-0.987,5.662-2.714,11.136-5.104,16.221l7.509,2.806 c1.698-5.797,2.631-11.748,2.814-17.669c0.107,0.076,0.215,0.152,0.324,0.225c3.142,2.114,6.863,3.232,10.607,3.796 C76.352,88.379,91.161,82.628,100,71.71C96.061,69.427,91.816,67.684,87.422,66.495z"></path>
</g><g transform="translate(103.773454171727 -100) rotate(0)">
  <animateTransform begin="-7.402752282485266s" repeatCount="indefinite" dur="33.333333333333336s" values="103.773454171727 -100;1244 946.1163614734032" keyTimes="0;1" type="translate" attributeName="transform"></animateTransform>
  <animateTransform additive="sum" repeatCount="indefinite" dur="33.333333333333336s" values="0 50 50;679.6589335046086 50 50" begin="-7.402752282485266s" keyTimes="0;1" type="rotate" attributeName="transform"></animateTransform>
  <path transform="scale(0.822033248904642)" fill="#ff9f32" d="M87.422,66.495c-2.009-0.544-4.049-0.97-6.107-1.283c10.617-11.116,15.747-27.37,13.129-42.549 c-5.236,1.77-10.223,4.252-14.824,7.313c-4.13,2.747-7.948,5.961-11.374,9.55C67.425,24.863,61.344,10.451,50.991,0 c-4.015,5.451-7.281,11.444-9.753,17.744c-3.579,9.122-5.501,18.893-5.669,28.691c-4.79-7.979-11.256-14.955-18.858-20.322 c-4.514-3.187-9.431-5.806-14.616-7.72c-3.361,16.717,2.731,35.015,15.445,46.379c0.369,0.33,0.745,0.654,1.126,0.972 c-2.359,0.411-4.689,0.983-6.969,1.714C7.582,68.775,3.634,70.61,0,72.945c8.85,9.963,23.134,14.771,36.208,12.186 c3.524-0.697,7.002-1.919,9.887-4.057c0.073-0.054,0.145-0.111,0.218-0.167c-0.987,5.662-2.714,11.136-5.104,16.221l7.509,2.806 c1.698-5.797,2.631-11.748,2.814-17.669c0.107,0.076,0.215,0.152,0.324,0.225c3.142,2.114,6.863,3.232,10.607,3.796 C76.352,88.379,91.161,82.628,100,71.71C96.061,69.427,91.816,67.684,87.422,66.495z"></path>
</g><g transform="translate(259.53084711124495 -100) rotate(0)">
  <animateTransform begin="-29.472477295630647s" repeatCount="indefinite" dur="33.333333333333336s" values="259.53084711124495 -100;1244 437.20930167141796" keyTimes="0;1" type="translate" attributeName="transform"></animateTransform>
  <animateTransform additive="sum" repeatCount="indefinite" dur="33.333333333333336s" values="0 50 50;668.0314114511284 50 50" begin="-29.472477295630647s" keyTimes="0;1" type="rotate" attributeName="transform"></animateTransform>
  <path transform="scale(0.6136610371079025)" fill="#ffc46c" d="M87.422,66.495c-2.009-0.544-4.049-0.97-6.107-1.283c10.617-11.116,15.747-27.37,13.129-42.549 c-5.236,1.77-10.223,4.252-14.824,7.313c-4.13,2.747-7.948,5.961-11.374,9.55C67.425,24.863,61.344,10.451,50.991,0 c-4.015,5.451-7.281,11.444-9.753,17.744c-3.579,9.122-5.501,18.893-5.669,28.691c-4.79-7.979-11.256-14.955-18.858-20.322 c-4.514-3.187-9.431-5.806-14.616-7.72c-3.361,16.717,2.731,35.015,15.445,46.379c0.369,0.33,0.745,0.654,1.126,0.972 c-2.359,0.411-4.689,0.983-6.969,1.714C7.582,68.775,3.634,70.61,0,72.945c8.85,9.963,23.134,14.771,36.208,12.186 c3.524-0.697,7.002-1.919,9.887-4.057c0.073-0.054,0.145-0.111,0.218-0.167c-0.987,5.662-2.714,11.136-5.104,16.221l7.509,2.806 c1.698-5.797,2.631-11.748,2.814-17.669c0.107,0.076,0.215,0.152,0.324,0.225c3.142,2.114,6.863,3.232,10.607,3.796 C76.352,88.379,91.161,82.628,100,71.71C96.061,69.427,91.816,67.684,87.422,66.495z"></path>
</g><g transform="translate(-100 257.50079095008846) rotate(0)">
  <animateTransform begin="-22.749954383846408s" repeatCount="indefinite" dur="33.333333333333336s" values="-100 257.50079095008846;1390.908509446761 888" keyTimes="0;1" type="translate" attributeName="transform"></animateTransform>
  <animateTransform additive="sum" repeatCount="indefinite" dur="33.333333333333336s" values="0 50 50;459.94273547882756 50 50" begin="-22.749954383846408s" keyTimes="0;1" type="rotate" attributeName="transform"></animateTransform>
  <path transform="scale(0.7186708604225549)" fill="#ff956e" d="M87.422,66.495c-2.009-0.544-4.049-0.97-6.107-1.283c10.617-11.116,15.747-27.37,13.129-42.549 c-5.236,1.77-10.223,4.252-14.824,7.313c-4.13,2.747-7.948,5.961-11.374,9.55C67.425,24.863,61.344,10.451,50.991,0 c-4.015,5.451-7.281,11.444-9.753,17.744c-3.579,9.122-5.501,18.893-5.669,28.691c-4.79-7.979-11.256-14.955-18.858-20.322 c-4.514-3.187-9.431-5.806-14.616-7.72c-3.361,16.717,2.731,35.015,15.445,46.379c0.369,0.33,0.745,0.654,1.126,0.972 c-2.359,0.411-4.689,0.983-6.969,1.714C7.582,68.775,3.634,70.61,0,72.945c8.85,9.963,23.134,14.771,36.208,12.186 c3.524-0.697,7.002-1.919,9.887-4.057c0.073-0.054,0.145-0.111,0.218-0.167c-0.987,5.662-2.714,11.136-5.104,16.221l7.509,2.806 c1.698-5.797,2.631-11.748,2.814-17.669c0.107,0.076,0.215,0.152,0.324,0.225c3.142,2.114,6.863,3.232,10.607,3.796 C76.352,88.379,91.161,82.628,100,71.71C96.061,69.427,91.816,67.684,87.422,66.495z"></path>
</g><g transform="translate(987.2963698861873 -100) rotate(0)">
  <animateTransform begin="-15.333991742766706s" repeatCount="indefinite" dur="33.333333333333336s" values="987.2963698861873 -100;1244 642.7013714958869" keyTimes="0;1" type="translate" attributeName="transform"></animateTransform>
  <animateTransform additive="sum" repeatCount="indefinite" dur="33.333333333333336s" values="0 50 50;999.0229388275785 50 50" begin="-15.333991742766706s" keyTimes="0;1" type="rotate" attributeName="transform"></animateTransform>
  <path transform="scale(0.7378537161682677)" fill="#ffc46c" d="M87.422,66.495c-2.009-0.544-4.049-0.97-6.107-1.283c10.617-11.116,15.747-27.37,13.129-42.549 c-5.236,1.77-10.223,4.252-14.824,7.313c-4.13,2.747-7.948,5.961-11.374,9.55C67.425,24.863,61.344,10.451,50.991,0 c-4.015,5.451-7.281,11.444-9.753,17.744c-3.579,9.122-5.501,18.893-5.669,28.691c-4.79-7.979-11.256-14.955-18.858-20.322 c-4.514-3.187-9.431-5.806-14.616-7.72c-3.361,16.717,2.731,35.015,15.445,46.379c0.369,0.33,0.745,0.654,1.126,0.972 c-2.359,0.411-4.689,0.983-6.969,1.714C7.582,68.775,3.634,70.61,0,72.945c8.85,9.963,23.134,14.771,36.208,12.186 c3.524-0.697,7.002-1.919,9.887-4.057c0.073-0.054,0.145-0.111,0.218-0.167c-0.987,5.662-2.714,11.136-5.104,16.221l7.509,2.806 c1.698-5.797,2.631-11.748,2.814-17.669c0.107,0.076,0.215,0.152,0.324,0.225c3.142,2.114,6.863,3.232,10.607,3.796 C76.352,88.379,91.161,82.628,100,71.71C96.061,69.427,91.816,67.684,87.422,66.495z"></path>
</g><g transform="translate(38.400163266655454 -100) rotate(0)">
  <animateTransform begin="-6.213980353205543s" repeatCount="indefinite" dur="33.333333333333336s" values="38.400163266655454 -100;847.5901242301338 888" keyTimes="0;1" type="translate" attributeName="transform"></animateTransform>
  <animateTransform additive="sum" repeatCount="indefinite" dur="33.333333333333336s" values="0 50 50;403.45652931741387 50 50" begin="-6.213980353205543s" keyTimes="0;1" type="rotate" attributeName="transform"></animateTransform>
  <path transform="scale(0.7747356023394978)" fill="#ffc46c" d="M87.422,66.495c-2.009-0.544-4.049-0.97-6.107-1.283c10.617-11.116,15.747-27.37,13.129-42.549 c-5.236,1.77-10.223,4.252-14.824,7.313c-4.13,2.747-7.948,5.961-11.374,9.55C67.425,24.863,61.344,10.451,50.991,0 c-4.015,5.451-7.281,11.444-9.753,17.744c-3.579,9.122-5.501,18.893-5.669,28.691c-4.79-7.979-11.256-14.955-18.858-20.322 c-4.514-3.187-9.431-5.806-14.616-7.72c-3.361,16.717,2.731,35.015,15.445,46.379c0.369,0.33,0.745,0.654,1.126,0.972 c-2.359,0.411-4.689,0.983-6.969,1.714C7.582,68.775,3.634,70.61,0,72.945c8.85,9.963,23.134,14.771,36.208,12.186 c3.524-0.697,7.002-1.919,9.887-4.057c0.073-0.054,0.145-0.111,0.218-0.167c-0.987,5.662-2.714,11.136-5.104,16.221l7.509,2.806 c1.698-5.797,2.631-11.748,2.814-17.669c0.107,0.076,0.215,0.152,0.324,0.225c3.142,2.114,6.863,3.232,10.607,3.796 C76.352,88.379,91.161,82.628,100,71.71C96.061,69.427,91.816,67.684,87.422,66.495z"></path>
</g><g transform="translate(-100 203.08747546646188) rotate(0)">
  <animateTransform begin="-5.51792774983736s" repeatCount="indefinite" dur="33.333333333333336s" values="-100 203.08747546646188;1244 1117.2715632210802" keyTimes="0;1" type="translate" attributeName="transform"></animateTransform>
  <animateTransform additive="sum" repeatCount="indefinite" dur="33.333333333333336s" values="0 50 50;417.00699543513997 50 50" begin="-5.51792774983736s" keyTimes="0;1" type="rotate" attributeName="transform"></animateTransform>
  <path transform="scale(1.054651638932679)" fill="#ffc46c" d="M87.422,66.495c-2.009-0.544-4.049-0.97-6.107-1.283c10.617-11.116,15.747-27.37,13.129-42.549 c-5.236,1.77-10.223,4.252-14.824,7.313c-4.13,2.747-7.948,5.961-11.374,9.55C67.425,24.863,61.344,10.451,50.991,0 c-4.015,5.451-7.281,11.444-9.753,17.744c-3.579,9.122-5.501,18.893-5.669,28.691c-4.79-7.979-11.256-14.955-18.858-20.322 c-4.514-3.187-9.431-5.806-14.616-7.72c-3.361,16.717,2.731,35.015,15.445,46.379c0.369,0.33,0.745,0.654,1.126,0.972 c-2.359,0.411-4.689,0.983-6.969,1.714C7.582,68.775,3.634,70.61,0,72.945c8.85,9.963,23.134,14.771,36.208,12.186 c3.524-0.697,7.002-1.919,9.887-4.057c0.073-0.054,0.145-0.111,0.218-0.167c-0.987,5.662-2.714,11.136-5.104,16.221l7.509,2.806 c1.698-5.797,2.631-11.748,2.814-17.669c0.107,0.076,0.215,0.152,0.324,0.225c3.142,2.114,6.863,3.232,10.607,3.796 C76.352,88.379,91.161,82.628,100,71.71C96.061,69.427,91.816,67.684,87.422,66.495z"></path>
</g><g transform="translate(-100 391.1731600052968) rotate(0)">
  <animateTransform begin="-21.51478847294988s" repeatCount="indefinite" dur="33.333333333333336s" values="-100 391.1731600052968;1388.2212089287061 888" keyTimes="0;1" type="translate" attributeName="transform"></animateTransform>
  <animateTransform additive="sum" repeatCount="indefinite" dur="33.333333333333336s" values="0 50 50;186.0860862961735 50 50" begin="-21.51478847294988s" keyTimes="0;1" type="rotate" attributeName="transform"></animateTransform>
  <path transform="scale(0.7567218402998785)" fill="#ff9f32" d="M87.422,66.495c-2.009-0.544-4.049-0.97-6.107-1.283c10.617-11.116,15.747-27.37,13.129-42.549 c-5.236,1.77-10.223,4.252-14.824,7.313c-4.13,2.747-7.948,5.961-11.374,9.55C67.425,24.863,61.344,10.451,50.991,0 c-4.015,5.451-7.281,11.444-9.753,17.744c-3.579,9.122-5.501,18.893-5.669,28.691c-4.79-7.979-11.256-14.955-18.858-20.322 c-4.514-3.187-9.431-5.806-14.616-7.72c-3.361,16.717,2.731,35.015,15.445,46.379c0.369,0.33,0.745,0.654,1.126,0.972 c-2.359,0.411-4.689,0.983-6.969,1.714C7.582,68.775,3.634,70.61,0,72.945c8.85,9.963,23.134,14.771,36.208,12.186 c3.524-0.697,7.002-1.919,9.887-4.057c0.073-0.054,0.145-0.111,0.218-0.167c-0.987,5.662-2.714,11.136-5.104,16.221l7.509,2.806 c1.698-5.797,2.631-11.748,2.814-17.669c0.107,0.076,0.215,0.152,0.324,0.225c3.142,2.114,6.863,3.232,10.607,3.796 C76.352,88.379,91.161,82.628,100,71.71C96.061,69.427,91.816,67.684,87.422,66.495z"></path>
</g><g transform="translate(-100 272.2977378247476) rotate(0)">
  <animateTransform begin="-26.602052836422335s" repeatCount="indefinite" dur="33.333333333333336s" values="-100 272.2977378247476;1244 1311.104018903417" keyTimes="0;1" type="translate" attributeName="transform"></animateTransform>
  <animateTransform additive="sum" repeatCount="indefinite" dur="33.333333333333336s" values="0 50 50;673.9667855540322 50 50" begin="-26.602052836422335s" keyTimes="0;1" type="rotate" attributeName="transform"></animateTransform>
  <path transform="scale(0.9927812469504179)" fill="#f86161" d="M87.422,66.495c-2.009-0.544-4.049-0.97-6.107-1.283c10.617-11.116,15.747-27.37,13.129-42.549 c-5.236,1.77-10.223,4.252-14.824,7.313c-4.13,2.747-7.948,5.961-11.374,9.55C67.425,24.863,61.344,10.451,50.991,0 c-4.015,5.451-7.281,11.444-9.753,17.744c-3.579,9.122-5.501,18.893-5.669,28.691c-4.79-7.979-11.256-14.955-18.858-20.322 c-4.514-3.187-9.431-5.806-14.616-7.72c-3.361,16.717,2.731,35.015,15.445,46.379c0.369,0.33,0.745,0.654,1.126,0.972 c-2.359,0.411-4.689,0.983-6.969,1.714C7.582,68.775,3.634,70.61,0,72.945c8.85,9.963,23.134,14.771,36.208,12.186 c3.524-0.697,7.002-1.919,9.887-4.057c0.073-0.054,0.145-0.111,0.218-0.167c-0.987,5.662-2.714,11.136-5.104,16.221l7.509,2.806 c1.698-5.797,2.631-11.748,2.814-17.669c0.107,0.076,0.215,0.152,0.324,0.225c3.142,2.114,6.863,3.232,10.607,3.796 C76.352,88.379,91.161,82.628,100,71.71C96.061,69.427,91.816,67.684,87.422,66.495z"></path>
</g><g transform="translate(-100 265.39059545048275) rotate(0)">
  <animateTransform begin="-23.496657751125635s" repeatCount="indefinite" dur="33.333333333333336s" values="-100 265.39059545048275;1244 831.0653097418367" keyTimes="0;1" type="translate" attributeName="transform"></animateTransform>
  <animateTransform additive="sum" repeatCount="indefinite" dur="33.333333333333336s" values="0 50 50;1068.810365942334 50 50" begin="-23.496657751125635s" keyTimes="0;1" type="rotate" attributeName="transform"></animateTransform>
  <path transform="scale(0.8629677624983847)" fill="#ff9f32" d="M87.422,66.495c-2.009-0.544-4.049-0.97-6.107-1.283c10.617-11.116,15.747-27.37,13.129-42.549 c-5.236,1.77-10.223,4.252-14.824,7.313c-4.13,2.747-7.948,5.961-11.374,9.55C67.425,24.863,61.344,10.451,50.991,0 c-4.015,5.451-7.281,11.444-9.753,17.744c-3.579,9.122-5.501,18.893-5.669,28.691c-4.79-7.979-11.256-14.955-18.858-20.322 c-4.514-3.187-9.431-5.806-14.616-7.72c-3.361,16.717,2.731,35.015,15.445,46.379c0.369,0.33,0.745,0.654,1.126,0.972 c-2.359,0.411-4.689,0.983-6.969,1.714C7.582,68.775,3.634,70.61,0,72.945c8.85,9.963,23.134,14.771,36.208,12.186 c3.524-0.697,7.002-1.919,9.887-4.057c0.073-0.054,0.145-0.111,0.218-0.167c-0.987,5.662-2.714,11.136-5.104,16.221l7.509,2.806 c1.698-5.797,2.631-11.748,2.814-17.669c0.107,0.076,0.215,0.152,0.324,0.225c3.142,2.114,6.863,3.232,10.607,3.796 C76.352,88.379,91.161,82.628,100,71.71C96.061,69.427,91.816,67.684,87.422,66.495z"></path>
</g><g transform="translate(-100 214.81251449614152) rotate(0)">
  <animateTransform begin="-23.445238141663754s" repeatCount="indefinite" dur="33.333333333333336s" values="-100 214.81251449614152;1244 1011.1203751039856" keyTimes="0;1" type="translate" attributeName="transform"></animateTransform>
  <animateTransform additive="sum" repeatCount="indefinite" dur="33.333333333333336s" values="0 50 50;231.54519332961726 50 50" begin="-23.445238141663754s" keyTimes="0;1" type="rotate" attributeName="transform"></animateTransform>
  <path transform="scale(0.8263760195523719)" fill="#ff956e" d="M87.422,66.495c-2.009-0.544-4.049-0.97-6.107-1.283c10.617-11.116,15.747-27.37,13.129-42.549 c-5.236,1.77-10.223,4.252-14.824,7.313c-4.13,2.747-7.948,5.961-11.374,9.55C67.425,24.863,61.344,10.451,50.991,0 c-4.015,5.451-7.281,11.444-9.753,17.744c-3.579,9.122-5.501,18.893-5.669,28.691c-4.79-7.979-11.256-14.955-18.858-20.322 c-4.514-3.187-9.431-5.806-14.616-7.72c-3.361,16.717,2.731,35.015,15.445,46.379c0.369,0.33,0.745,0.654,1.126,0.972 c-2.359,0.411-4.689,0.983-6.969,1.714C7.582,68.775,3.634,70.61,0,72.945c8.85,9.963,23.134,14.771,36.208,12.186 c3.524-0.697,7.002-1.919,9.887-4.057c0.073-0.054,0.145-0.111,0.218-0.167c-0.987,5.662-2.714,11.136-5.104,16.221l7.509,2.806 c1.698-5.797,2.631-11.748,2.814-17.669c0.107,0.076,0.215,0.152,0.324,0.225c3.142,2.114,6.863,3.232,10.607,3.796 C76.352,88.379,91.161,82.628,100,71.71C96.061,69.427,91.816,67.684,87.422,66.495z"></path>
</g><g transform="translate(565.0004118422817 -100) rotate(0)">
  <animateTransform begin="-2.1050865510874917s" repeatCount="indefinite" dur="33.333333333333336s" values="565.0004118422817 -100;1244 358.1976787472098" keyTimes="0;1" type="translate" attributeName="transform"></animateTransform>
  <animateTransform additive="sum" repeatCount="indefinite" dur="33.333333333333336s" values="0 50 50;938.2252047344745 50 50" begin="-2.1050865510874917s" keyTimes="0;1" type="rotate" attributeName="transform"></animateTransform>
  <path transform="scale(0.5800431716959755)" fill="#ff956e" d="M87.422,66.495c-2.009-0.544-4.049-0.97-6.107-1.283c10.617-11.116,15.747-27.37,13.129-42.549 c-5.236,1.77-10.223,4.252-14.824,7.313c-4.13,2.747-7.948,5.961-11.374,9.55C67.425,24.863,61.344,10.451,50.991,0 c-4.015,5.451-7.281,11.444-9.753,17.744c-3.579,9.122-5.501,18.893-5.669,28.691c-4.79-7.979-11.256-14.955-18.858-20.322 c-4.514-3.187-9.431-5.806-14.616-7.72c-3.361,16.717,2.731,35.015,15.445,46.379c0.369,0.33,0.745,0.654,1.126,0.972 c-2.359,0.411-4.689,0.983-6.969,1.714C7.582,68.775,3.634,70.61,0,72.945c8.85,9.963,23.134,14.771,36.208,12.186 c3.524-0.697,7.002-1.919,9.887-4.057c0.073-0.054,0.145-0.111,0.218-0.167c-0.987,5.662-2.714,11.136-5.104,16.221l7.509,2.806 c1.698-5.797,2.631-11.748,2.814-17.669c0.107,0.076,0.215,0.152,0.324,0.225c3.142,2.114,6.863,3.232,10.607,3.796 C76.352,88.379,91.161,82.628,100,71.71C96.061,69.427,91.816,67.684,87.422,66.495z"></path>
</g><g></g></g><!-- [ldio] generated by https://loading.io --></svg>